<?xml version="1.0" encoding="utf-8"?>
<!-- Generator: Adobe Illustrator 24.0.1, SVG Export Plug-In . SVG Version: 6.00 Build 0)  -->
<svg version="1.1" id="Calque_1" xmlns="http://www.w3.org/2000/svg" xmlns:xlink="http://www.w3.org/1999/xlink" x="0px" y="0px"
	 viewBox="0 0 553.61 422.97" style="enable-background:new 0 0 553.61 422.97;" xml:space="preserve">
<style type="text/css">
	.st0{fill:#010202;}
</style>
<path class="st0" d="M429.76,1.2H298.59h-42.98H124.44L1.3,124.34v174.15l123.14,123.14h131.17h42.98h131.17L552.9,298.49V124.34
	L429.76,1.2z M131.33,17.84h107.64L134.99,121.82H27.35L131.33,17.84z M132.47,286.72H17.94V138.46h114.53V286.72z M131.33,404.99
	L29.7,303.36h107.64l101.63,101.63H131.33z M536.26,291.6l-113.39,113.4H262.5L149.11,291.6V131.23L262.5,17.84h160.37
	l113.39,113.39V291.6z"/>
<g>
	<path class="st0" d="M194.86,110.51l27.38-25.02c3-2.5,8.55-7.21,15.14-6.98c3.89,0.05,7.75,2.17,10.45,5.12
		c3.11,3.41,4.31,7.61,4.15,11.11c-0.11,2.38-0.81,3.98-1.66,6.08c2.38-1.21,4.5-2.31,8.01-2.15c4.96,0.16,8.17,2.75,10.26,5.05
		c3.17,3.47,5.42,8.03,5.21,12.54c-0.24,6.71-4.9,11.21-8.38,14.63l-28.29,25.86L194.86,110.51z M218.38,106.92l7.18,7.86l8.06-7.36
		c1.38-1.26,4.78-4.37,1.25-8.24c-3.47-3.8-6.74-1.06-8.11,0.07L218.38,106.92z M234.36,124.54l8.2,8.97l9.17-8.38
		c1.25-1.26,2.57-2.59,2.54-4.85c0.06-1.38-0.5-2.91-1.58-4.09c-3.95-4.32-8.06-0.93-9.49,0.27L234.36,124.54z"/>
	<path class="st0" d="M268.03,56.48l30.29-7.6c5.77-1.45,11.36-2.49,15.45-1.87c8.95,1.41,13.44,9.07,14.91,14.92
		c0.58,2.32,1.69,7.81-1.58,13.39c-1.76,3.19-4.11,4.78-6.66,6.61l20.96,20.81l-21.34,5.36l-17.17-18.47l-5.68,1.43l5.38,21.43
		l-19.28,4.84L268.03,56.48z M290.51,64.38l3.57,14.2l8-2.01c3.18-0.8,9.25-2.5,7.52-9.39c-1.75-6.97-7.82-5.63-11.17-4.79
		L290.51,64.38z"/>
	<path class="st0" d="M360.69,41.61l48.47,10.54l-2.92,13.44l-29.05-6.31l-1.98,9.11l27.14,5.9l-2.88,13.27l-27.14-5.9l-2.64,12.14
		l31.65,6.88l-2.88,13.27l-51.08-11.1L360.69,41.61z"/>
	<path class="st0" d="M434.48,59.15l14.55,12.75L435.62,96.5c-3.76,6.85-4.72,8.49-8.75,14.16c5.42-4.57,6.85-5.8,13.22-10.37
		l22.83-16.22l12.61,11.05l-12.82,24.99c-3.75,7.1-4.77,8.68-8.62,14.28c5.23-4.62,6.78-5.85,12.47-10.19l22.98-16.8l14.48,12.69
		l-53.04,36.83l-15.95-13.98l10.7-20.83c4.14-7.82,5.27-9.78,9.87-17.19c-5.88,5.23-7.38,6.4-13.92,11.17l-20.74,14.51l-16.02-14.04
		L434.48,59.15z"/>
</g>
<g>
	<path class="st0" d="M226.19,246.6l29.64,42.19l-12.71,8.93l-9.13-13l-38.63,27.14l-11.38-16.19l38.63-27.14l-9.13-13L226.19,246.6
		z"/>
	<path class="st0" d="M266.39,295.98l19.27,11.7l-12.48,65.71l-18.57-10.08l2.53-9.84l-18.66-11.33l-7.81,6.8l-17.26-11.84
		L266.39,295.98z M266.7,317.03l-17.31,15.34l11.53,7L266.7,317.03z"/>
	<path class="st0" d="M300.64,315.42l19.44,3.7l-8.77,46.11l23.8,4.53l-2.95,15.52l-43.24-8.22L300.64,315.42z"/>
	<path class="st0" d="M343.87,321.52l19.84-1.17l3.7,62.54l-19.84,1.18L343.87,321.52z"/>
	<path class="st0" d="M371.6,319.62l48.07-18.64l5.62,14.48l-14.81,5.74l17.07,44.02l-18.45,7.15l-17.07-44.02l-14.81,5.74
		L371.6,319.62z"/>
	<path class="st0" d="M437.84,281.99l23.9,3.69l-8.53-22.53l14.53-17.81l12.14,42.54l20.42,16.66l-12.51,15.34l-20.42-16.66
		l-44-3.48L437.84,281.99z"/>
</g>
<path class="st0" d="M383.22,123h-74.04l-52.35,52.35v74.04l52.35,52.35h74.04l52.35-52.35v-74.04L383.22,123z M316.07,139.64h60.26
	l30.84,30.84h-82.75l-19.59-19.59L316.07,139.64z M329.29,237.63v-50.51h89.64v50.51H329.29z M273.46,182.24l19.59-19.59
	l19.59,19.59v60.26l-19.59,19.59l-19.59-19.59V182.24z M376.33,285.11h-60.26l-11.25-11.25l19.59-19.59h82.75L376.33,285.11z"/>
</svg>
